<svg id="Layer_1" data-name="Layer 1" xmlns="http://www.w3.org/2000/svg" viewBox="0 0 600 600"><defs><style>.cls-1{fill:none;}</style></defs><rect class="cls-1" width="600" height="600"/><path d="M362,284.22a23.61,23.61,0,0,0,1.57-7.25,7.42,7.42,0,0,0-2.16-5.1,53.93,53.93,0,0,1,6.86-24.1,64.85,64.85,0,0,0,5.49-15.49q3.72-14.11,22.54-47.24-7.26,3.93-15.68,12.35a196.28,196.28,0,0,1,10.58-19.21q1.18-11.18,7.06-30.38c-.92,2.09-1.5,3.14-1.77,3.14s-.19-.2-.19-.59a37.11,37.11,0,0,1,.78-5.49,72.73,72.73,0,0,0,1.57-15.09c0-2.22-.07-4.38-.19-6.47h-3.73l-3.33-.2.78-15.09q-6.27,7.84-12.94,15.48,2.55-8,4.12-22.73,7.65-25.49,9-32.93a57.12,57.12,0,0,1,4.9-14.7q3.53-7.25,3.92-21.37l.19-6.66a144.28,144.28,0,0,1-9.11,21.17Q386.92,56.46,381,66.55T369.29,87.23a50.25,50.25,0,0,1-5.88.2q-1.77,9.6-9,24.11-8.62,16.67-9.41,27.24-2.16,20.4-13.72,50.77l-2,5.49-4.7,3.13a.18.18,0,0,1-.2.2,44,44,0,0,1-3.33,13.43q-2.35,5-3.92,14.79-1.75,10.59-5.29,16.86-.58-5.88-.59-10l-2.16.39-.19.78a88.62,88.62,0,0,1-1.86,11.08,29.07,29.07,0,0,1-4.61,10.09l4.12.79q-5.88,25.68-12.35,36.65-4.52,8-4.51,13.13a23.84,23.84,0,0,1-1.67,7.94q-1.47,3.63-3.23,7.35a38.56,38.56,0,0,0-4.9,12.94,159.88,159.88,0,0,1-2.16-22.74q-1-19.22-3.72-28.82a164.54,164.54,0,0,1-7.45-47.63c0-3.78.13-7.51.39-11.17a61,61,0,0,0,2.75-18.62A148.86,148.86,0,0,0,268.54,187a197.06,197.06,0,0,1-1.37-21.17,14.17,14.17,0,0,0-1.57,4.9c-1.05,4.06-1.86,6.25-2.45,6.57a3.13,3.13,0,0,1-1.27.49,3.79,3.79,0,0,1-2-.78q-3.14-14.12-3.14-35.48Q255,157.6,254.23,157.6c-.13,0-.26-.78-.39-2.35a101.29,101.29,0,0,0-2.16-16.66,26.27,26.27,0,0,1-.58-5.49,80.25,80.25,0,0,1,.39-8.23v-1l-7.84-3.73a38,38,0,0,1-2-10q-.19-3.14-.59-6.08c-1.18,2.88-2.22,5.81-3.14,8.82q-.19.39-.39.39-1.38,0-3.82-21.75t-4.22-21.76a.62.62,0,0,0-.58.39A34.1,34.1,0,0,1,222.87,50V44.7l.2-12.35q0-3.33-.2-6.47a79,79,0,0,0-8.62,29.4,126.41,126.41,0,0,0-1.18,20l.2,13.13.19,6.07q0,18.24-5.49,24.9a88.86,88.86,0,0,1,2,16.66,6.65,6.65,0,0,1-2.45,5.49,5.55,5.55,0,0,0-2.45,4.31l.2,1.57a67.4,67.4,0,0,1,2,13.52,28.78,28.78,0,0,1-.39,4.71q-3.35-9.42-8.23-21.17,1.76,9.79,4,19.6t4.12,19.7a123.46,123.46,0,0,1,2.16,16.07q.28,6.18.29,8.53a79.18,79.18,0,0,1-1.57,15.48,23.09,23.09,0,0,1,2.55,8.23l-.2,21.56a30.61,30.61,0,0,0,2,9.61q3.91,10.77,6.85,28.42,2.94,18.63,6.67,28.42,6.47,29,6.47,51.16,0,31.37-11.76,54.88a73,73,0,0,0,9.8-10.19,86.53,86.53,0,0,1,9.4-10.19q1.57,14.1,7.65,33.12,3.14,10.2,5.68,20.58a120.13,120.13,0,0,1-24.5,33.13,182.83,182.83,0,0,0,23.92-12q-4.71,27.45-5.3,46.65a41.13,41.13,0,0,1-2.94,13.33q-2.55,6.27-5.68,12.54-6.85,13.14-8.23,21.76,9.8-7.24,20.77-23.13,3.93-5.88,8.43-11.36,5.3-10.2,11.18-20.19,16.26-28,21.95-45.28A52.11,52.11,0,0,1,294,488.27a118.75,118.75,0,0,1-2.55,22.54l-.39,2.35q19.8-36.06,26.27-83.5a95.8,95.8,0,0,1,6.27-22.93q5.29-14.31,6.47-24.11,3.14-34.89,15.87-60.57,10.4-13.12,14.71-32.73A29.14,29.14,0,0,1,362,284.22Z"/></svg>