<svg id="Layer_1" data-name="Layer 1" xmlns="http://www.w3.org/2000/svg" viewBox="0 0 523.34 146.04"><path d="M377.67,252.55q-1.23,1.19-2.34,2.46a28.93,28.93,0,0,1-2.31,2.38,14.5,14.5,0,0,0-2.33,2.88,15.68,15.68,0,0,1-2.86,3.2l.3-3c-1.84,2.59-4,3.88-6.59,3.88a21.88,21.88,0,0,1-3.89,5.11v.1a5,5,0,0,1-1.2,3,10.45,10.45,0,0,0-1.75,3.59,10.56,10.56,0,0,1-1.52,2.9,12.07,12.07,0,0,0-1.33,2.36,32.1,32.1,0,0,1-3.07,6.79,30.89,30.89,0,0,1-4.4,6.05,9.53,9.53,0,0,1-.3-1.33,5.16,5.16,0,0,0-.78-2.61,40.42,40.42,0,0,1-2.83-5.68,42.09,42.09,0,0,1-2.09-6,41.12,41.12,0,0,0-2-9.49l.1,1.33c.13,1.51.21,2.62.25,3.34l0,1.08a8.05,8.05,0,0,1-1-2.21q-.31-1.19-.54-2.31c-.15-.75-.31-1.48-.49-2.16a9.75,9.75,0,0,0-.32-1,19.25,19.25,0,0,1,3.24-1.12A56.38,56.38,0,0,0,349,264.25a55.86,55.86,0,0,0-7.37-1,57,57,0,0,1-6.25-.74,34.66,34.66,0,0,1,8.36-2.75,33.38,33.38,0,0,0,7.33-2.26,51.9,51.9,0,0,0,5.06-2.66,16.74,16.74,0,0,0-1.87-.1c-.59,0-1.64.08-3.14.25-.66.06-1.33.11-2,.14q-1.28-.09-2.61-.09a15.87,15.87,0,0,0-5.85,1,53.55,53.55,0,0,1-10.32,1c-1.28,0-2.49.07-3.64.14-.27-.35-.54-.69-.79-1.07a21.85,21.85,0,0,0-5.26-6.25c.42,1.15.9,2.27,1.42,3.35a20.15,20.15,0,0,1,1.7,4.21c-1.15.13-2.2.3-3.19.49a11.16,11.16,0,0,0-1.55-1.6,13.51,13.51,0,0,0,.49,1.57c0,.08,0,.16.07.24l-1,.25a8,8,0,0,1-2.51.35,12.1,12.1,0,0,1-1.47-.1l-.59-3.54-1.52.29-.3-3.64-2.46,4.08a22.77,22.77,0,0,0,.25-3.83l-.05-2.51a20.58,20.58,0,0,1,.74-6.15,9,9,0,0,0,.39-2.65,25.66,25.66,0,0,0-.2-3.25l-.09-.59a60.66,60.66,0,0,1-3.35,9.69q-1.32,3-2.36,5.95c-.16-.07-.56-.28-1.18-.64a19.56,19.56,0,0,1-1.43,6.2,19.2,19.2,0,0,1-4.27.71c-1.08,0-1.81,0-2.17,0-1.44,0-2.88,0-4.32-.14s-2.81-.16-4.21-.18l.08-.31.54-2.86a16.84,16.84,0,0,0-1.48,1.92,14,14,0,0,1-.94,1.27q-1,0-2,.18c0-.2,0-.41,0-.61a17.48,17.48,0,0,1,1.33-5.95c.33-.95.62-1.92.88-2.9a20.81,20.81,0,0,0-4.27,6.44,13.88,13.88,0,0,1-3.67,4.65c-.24,0-.47,0-.71,0a44.86,44.86,0,0,0-6.59.64,18.26,18.26,0,0,0-3,.74,14,14,0,0,1-3.83.73l-.69,0-.88-.05c-.82-.34-1.64-.67-2.47-1a36.27,36.27,0,0,1-7.77-1.23,43.54,43.54,0,0,0-10.47,3.1,47,47,0,0,1-9.05,2.95,31.61,31.61,0,0,1-3.59-3.24l-1.32-1.38c.36,1,.73,2,1.13,3s.75,2,1.08,2.95a15.34,15.34,0,0,1-3.15,2.26c-1.15.62-2.31,1.21-3.49,1.77s-2.35,1.17-3.52,1.85a19.57,19.57,0,0,0-3.22,2.33,19.08,19.08,0,0,1-1.53,1.3c-.1-.43-.19-.87-.29-1.35a49.51,49.51,0,0,0-1.57-6.44q-2.46-1.77-4.72-3.74-1.58-1.32-3.15-2.55a11.09,11.09,0,0,0-5.6-1.23c-.95,0-1.9,0-2.85.1l-.2-1.58h-.49a15.7,15.7,0,0,0-2.46.2,17.07,17.07,0,0,1-2.66.19,7.06,7.06,0,0,1-2.16-.34,2.8,2.8,0,0,0,.2-.88l-.3-.05a10.56,10.56,0,0,0-3.49-.74,4.14,4.14,0,0,0-2.61.88,16.41,16.41,0,0,1-5.6,3.2,6.72,6.72,0,0,1-.1-1.18,13.89,13.89,0,0,1,1-4.52,17.13,17.13,0,0,0-3.39,5.11,56.13,56.13,0,0,1-2.61,5.06c-.78,1.48-1.54,3-2.26,4.46a22.94,22.94,0,0,0-1.67,4.69l-.69-2.16a91.5,91.5,0,0,0-3.78,11.31q-1.53,5.75-2.81,11.6l-.1.44q.15,2.46.15,4.95c0,1.65.06,3.31.17,5a24.9,24.9,0,0,0,.86,5,29.77,29.77,0,0,0-4.27-1.82c-.82-.69-1.64-1.34-2.46-2,.39.62.8,1.23,1.23,1.82a25.09,25.09,0,0,1,2.5,4,23.75,23.75,0,0,0,4.23,5.26,29,29,0,0,1,2.78,3l-2.53.3a38.73,38.73,0,0,1-5.51.55l-1.13-.05a20.84,20.84,0,0,1,4.62-2.36,79.93,79.93,0,0,1-10.47.78,6.11,6.11,0,0,1-2.31,1.28c-.76.2-1.49.41-2.21.64a14.34,14.34,0,0,1-3.94.93,6.19,6.19,0,0,1-2-4.67,6,6,0,0,1,.29-1.82,19.08,19.08,0,0,0,1.53-7.47,21.71,21.71,0,0,0-2.81,6.93,10.61,10.61,0,0,1-1.92,5.17,17.38,17.38,0,0,1-.54-4.09,24.26,24.26,0,0,1,.69-5.21,18.65,18.65,0,0,0,.4-4.18,21.84,21.84,0,0,1,.63-5.06c.4-.49.73-.87,1-1.13a87.27,87.27,0,0,1,3.78-12.49c.5-.92,1-1.82,1.53-2.71a61.51,61.51,0,0,0,3.54-7.18,34.91,34.91,0,0,0-2.07,3.25,28.34,28.34,0,0,1-3.29,4.77,140.16,140.16,0,0,1,2.25-18.82,31,31,0,0,1,4.68-1.34c-1.05,0-2.07-.09-3.07-.17-.48,0-.92-.08-1.32-.1,0-.13,0-.25.07-.37q2-5.55,3.29-8.95c-.1-.82-.18-1.65-.25-2.51-.09-1.11-.22-2.23-.36-3.34a25.85,25.85,0,0,0-.69-3.37,13.23,13.23,0,0,1-.47-3.52,28.19,28.19,0,0,1,.44-4.91c.56-2.13,1-4.3,1.38-6.49l.93-4.53a50.53,50.53,0,0,1-7.81,14.85c-.14-1-.25-2.09-.35-3.34-.39,1.15-.77,2.33-1.13,3.54a34.35,34.35,0,0,1-2.9,7.72,35.67,35.67,0,0,0-2.66,7.28c-.13.39-.24.8-.34,1.23a16.41,16.41,0,0,0-1.73,5.93l-.19,0a36.45,36.45,0,0,0-7.52-.84c.42-.65.85-1.28,1.28-1.87l-8.8.25a38.27,38.27,0,0,0-3.89.29,1.28,1.28,0,0,1-.29-.24l-.3-.32a1.41,1.41,0,0,0-.29-.27c-.76.42-1.53.83-2.32,1.23.1-.79.22-1.6.35-2.44s.26-1.69.39-2.58l-.64,1.43a21.93,21.93,0,0,1-2.06,3.88,28.68,28.68,0,0,1,.54-5.8c.42-1.9.92-3.79,1.47-5.66q.89-3.09,1.53-6.24-1.57,2.66-3.39,5.16a41.42,41.42,0,0,0-4.38,7c-.1-.26-.23-.58-.39-.95s-.3-.72-.4-1c-.39.78-.77,1.59-1.13,2.41a12.3,12.3,0,0,1-3.83,5.75,21.27,21.27,0,0,1-2.86.2c-1.34,0-2.68-.05-4-.15-1.15-.09-2.46-.13-3.93-.14.19-.72.41-1.47.66-2.27-.23.52-.38.79-.45.79s0-.05,0-.15a9.68,9.68,0,0,1,.2-1.38,18.44,18.44,0,0,0,.39-3.78c0-.56,0-1.1,0-1.63h-.93l-.84-.05.2-3.78q-1.57,2-3.24,3.88a30.82,30.82,0,0,0,1-5.7c1.28-4.26,2-7,2.26-8.26a14.3,14.3,0,0,1,1.23-3.69,13.46,13.46,0,0,0,1-5.36l0-1.67a36.6,36.6,0,0,1-2.28,5.31q-1.36,2.55-2.86,5.09t-2.92,5.19a14.5,14.5,0,0,1-1.48,0,23.77,23.77,0,0,1-2.26,6.05,19,19,0,0,0-2.36,6.84,53.17,53.17,0,0,1-3.44,12.73l-.49,1.38L70,277a0,0,0,0,1,0,.05,11.08,11.08,0,0,1-.84,3.37,14.51,14.51,0,0,0-1,3.71,13.26,13.26,0,0,1-1.33,4.23c-.1-1-.15-1.82-.15-2.51l-.54.1,0,.19a22.7,22.7,0,0,1-.46,2.78,7.26,7.26,0,0,1-1.16,2.53l1,.2a34.8,34.8,0,0,1-3.09,9.2,7.19,7.19,0,0,0-1.14,3.29,6,6,0,0,1-.41,2c-.25.61-.52,1.22-.81,1.85a9.47,9.47,0,0,0-1.23,3.24,37.63,37.63,0,0,1-.54-5.7,35.06,35.06,0,0,0-.94-7.23,41.16,41.16,0,0,1-1.87-11.95c0-.95,0-1.88.1-2.8a15.33,15.33,0,0,0,.69-4.67,37.24,37.24,0,0,0-.3-4.68,48.73,48.73,0,0,1-.34-5.31,3.62,3.62,0,0,0-.39,1.23c-.27,1-.47,1.57-.62,1.65a.8.8,0,0,1-.32.12,1,1,0,0,1-.49-.19,42.3,42.3,0,0,1-.79-8.9c-.29,2.68-.51,4-.64,4s-.06-.2-.09-.59a26.71,26.71,0,0,0-.54-4.18,6.48,6.48,0,0,1-.15-1.38,19.34,19.34,0,0,1,.1-2.06v-.25l-2-.93a9.71,9.71,0,0,1-.49-2.51q-.06-.78-.15-1.53c-.3.73-.56,1.46-.79,2.22,0,.06-.06.1-.1.1-.23,0-.54-1.82-1-5.46s-.77-5.46-1.06-5.46a.15.15,0,0,0-.15.1,8.54,8.54,0,0,1-1.52-5.07v-1.32l0-3.1c0-.56,0-1.1,0-1.63a19.91,19.91,0,0,0-2.17,7.38,32.92,32.92,0,0,0-.29,5l.05,3.29,0,1.53c0,3-.46,5.13-1.38,6.24a22.61,22.61,0,0,1,.49,4.18,1.67,1.67,0,0,1-.61,1.38,1.39,1.39,0,0,0-.62,1.08l0,.39a16.84,16.84,0,0,1,.49,3.4,6.8,6.8,0,0,1-.1,1.18q-.82-2.37-2.06-5.32c.29,1.64.63,3.28,1,4.92s.72,3.29,1,4.94a31.13,31.13,0,0,1,.54,4c.05,1,.07,1.74.07,2.13a20,20,0,0,1-.39,3.89,5.84,5.84,0,0,1,.64,2.06l0,5.41a7.72,7.72,0,0,0,.49,2.41,41,41,0,0,1,1.72,7.13,37.68,37.68,0,0,0,1.68,7.13,60,60,0,0,1,1.62,12.84,30.34,30.34,0,0,1-2.95,13.76,17.4,17.4,0,0,0,2.46-2.55,21.19,21.19,0,0,1,2.36-2.56,43.41,43.41,0,0,0,1.92,8.31q.78,2.56,1.42,5.16a30,30,0,0,1-6.15,8.31,44.78,44.78,0,0,0,6-3,86.35,86.35,0,0,0-1.32,11.71,10.62,10.62,0,0,1-.74,3.34c-.43,1.05-.9,2.1-1.43,3.15a18.73,18.73,0,0,0-2.06,5.46,24.81,24.81,0,0,0,5.21-5.81c.65-1,1.36-1.93,2.11-2.85.89-1.7,1.82-3.39,2.81-5.06a64.83,64.83,0,0,0,5.5-11.36,12.79,12.79,0,0,1,.45,3.34,30.39,30.39,0,0,1-.64,5.66l-.1.59a55,55,0,0,0,4.7-11.72l1,0a36.09,36.09,0,0,0,4.18-.24A34.13,34.13,0,0,1,79,342.93c-.27,1.6-.58,3.19-.94,4.77a45.65,45.65,0,0,0-1.18,8.6l.25-.39q1.32-2.22,2.63-4.45a38.77,38.77,0,0,0,2.33-4.7c.23,2.76.56,5.49,1,8.21a8.77,8.77,0,0,1,.39-2.75,25.83,25.83,0,0,1,1-2.46,22.05,22.05,0,0,0,1-2.55A5.8,5.8,0,0,0,89,345.63l1.08-.29A9.21,9.21,0,0,1,93,342.53l1.23-1a4.09,4.09,0,0,1,2.21-1.13,16,16,0,0,1,2.51-.2,18,18,0,0,0,3.15-.34c1.9-.53,3.82-1,5.75-1.38,1.43-.29,2.78-.6,4-.92q3.57,0,7.17.23a18.87,18.87,0,0,1-7.52,1.82c-.4.07-1.56.4-3.49,1-3.45,1.14-6,2.08-7.53,2.8,1.87.06,3.74.1,5.61.1a41.28,41.28,0,0,0,4.45-.17c.9-.12,1.79-.28,2.68-.47a29.09,29.09,0,0,1,4.82-.59h.54c-.1.69-.21,1.39-.35,2.11s-.25,1.45-.36,2.19a20.72,20.72,0,0,0-.23,2.24q1.77-1.92,3.45-4a7.77,7.77,0,0,0-.1,1.27,8.81,8.81,0,0,0,.22,2,8.81,8.81,0,0,1,.22,2c0,.65-.09,1.32-.17,2a19.05,19.05,0,0,0-.12,2.24,7.32,7.32,0,0,0,.14,1.47,32,32,0,0,0,1.82-4.87,18.71,18.71,0,0,1,3.1-6.83,5.39,5.39,0,0,1,2.56-1.77,9.63,9.63,0,0,0,1.77-1,14,14,0,0,0,1.82-2.36A8.51,8.51,0,0,1,133,338c-.14-.16-.3-.34-.5-.54l-.61-.64a4.53,4.53,0,0,0-.57-.54,14.13,14.13,0,0,0,2.61-1,8,8,0,0,1,2.66-.81c.65,0,1.32-.1,2-.2l-1.33,5.31a30.12,30.12,0,0,0,2.32-3.59l1.32-2.16a14.27,14.27,0,0,1,4.18-.59l2.36.05a5.67,5.67,0,0,0,2.24-.49,10.08,10.08,0,0,1,2.34-.69,30.48,30.48,0,0,0,4.72-.74,21,21,0,0,1,5.31-.79l3,.05c2.09,0,5.09-.19,9-.59h.06l1,.86a29.88,29.88,0,0,0,6.76,4.55c.76.07,1.53.1,2.31.1H185a28.38,28.38,0,0,1,4.08.25q12.78-2.37,16.67-10.08a17.83,17.83,0,0,1-2.16,1.67,11.61,11.61,0,0,0-3,2.75l-.59.15a24.93,24.93,0,0,1-5.36,1.13h-1a10.11,10.11,0,0,1-2.76-.39,6.52,6.52,0,0,1,3.25-1.77,13.45,13.45,0,0,0,2-.74c1-.46,1.92-.89,2.91-1.28a16.9,16.9,0,0,0,5.4-3.05,20.75,20.75,0,0,1,1.63-1.37,17,17,0,0,0,3.59-3.69,18.25,18.25,0,0,0,2.29-5.44c.08.88.16,1.76.26,2.63a21.31,21.31,0,0,0,1.68-2l-.05,1.28a34.35,34.35,0,0,0,1.62,8.7c.42,1.64.74,3,1,4.15s.47,2.27.78,3.4a9.84,9.84,0,0,0,1.55,3.17l-.05-.84a9.57,9.57,0,0,1,1.09-4.72,15.65,15.65,0,0,1,6,5,6.9,6.9,0,0,1,1.22.2,51.14,51.14,0,0,0,5.91.54l-.15-.79a37.78,37.78,0,0,1,3.93.17,7.19,7.19,0,0,1,2.85,1,3.69,3.69,0,0,0,1.77.44c.86,0,1.28-.37,1.28-1.13v-.29a15.54,15.54,0,0,1,1.77.29,22.83,22.83,0,0,0,5.21.74,16.1,16.1,0,0,0,5.71-1.18c1.11-.43,2.24-.9,3.39-1.43s1.92-.85,2.8-1.19l-.12.31a14.84,14.84,0,0,1-1.87,3.27c-.77,1-1.56,2-2.38,2.92a16,16,0,0,0,1.74-.9l1.7-1a28.54,28.54,0,0,1,2.51-1.53,59.34,59.34,0,0,0-.54,8.07c0,1.14,0,2.29.1,3.44V347a16.83,16.83,0,0,1-1.58,6.2,20.75,20.75,0,0,0-1.52,5.55,19.83,19.83,0,0,0,3.64-4.42,26,26,0,0,1,1.42-2.51,18,18,0,0,0,2.26-4.38,79.54,79.54,0,0,0,6.05-14.9,14.27,14.27,0,0,1,.79,4.67,24.62,24.62,0,0,1-.59,5.31,30,30,0,0,0,2.43-6.17c.58-2.11,1.08-4.27,1.5-6.46l.64-2.85c.23-3.55.43-6.05.59-7.53a27.6,27.6,0,0,1,.84-4.33,39.15,39.15,0,0,0,1.33-9.29,34,34,0,0,1,1.37-9.34,16.39,16.39,0,0,1,1.67-4.38,14.53,14.53,0,0,0,1.58-3.49q.43-1.92.78-3.78a24,24,0,0,1,1.38-5.51l-2.36,2.85,0-1.33a27.28,27.28,0,0,1,1.44-7.64c1.44.08,2.87.13,4.32.17q5.94.24,9,.59c-.16,1.38-.28,2.73-.37,4.08s-.18,2.67-.31,4a36.91,36.91,0,0,1-4.38,11.07c.33-.14.74-.28,1.25-.45s.94-.31,1.31-.44c-.27,1.38-.48,2.74-.64,4.08a41.69,41.69,0,0,1-1.75,8.14A39.94,39.94,0,0,0,293,310l2.12-1.72q-1.49,7.92-2.51,12l-.49,4.72a69.42,69.42,0,0,1-2.66,15.59,20,20,0,0,0-1.37,6.54,26.88,26.88,0,0,1,3.63-5.86c.59-.75,1.15-1.54,1.68-2.36l.59-1.57a41.44,41.44,0,0,1,3.39-7.87,22.68,22.68,0,0,0,2.21-5.7,42.34,42.34,0,0,1,1.38-4.23l1,3.74a16,16,0,0,0,1.13-2.17q.74-2.65,1.82-8.4t1.77-8.46a13.19,13.19,0,0,0,.3-3.2v-.69a9.14,9.14,0,0,1,.49-3.19,4.27,4.27,0,0,1,1.18-1.63v-.73A26.09,26.09,0,0,1,310.2,287a41.81,41.81,0,0,1,3.3-11.26l.83-2.07c-.95.82-1.87,1.69-2.75,2.61l-.39.44a34.52,34.52,0,0,1,1.67-4.33c1-.16,2-.35,3-.56s2-.39,2.82-.52a16.26,16.26,0,0,1,2.39-.19h.57c.1.29.2.6.32.87a47.25,47.25,0,0,1,4,11.66,10.54,10.54,0,0,1-3.2-2.66,28.69,28.69,0,0,1,2.22,5.65,22.62,22.62,0,0,0,3.44,7.43,8.76,8.76,0,0,1,1.42,2.14c.36.77.79,1.83,1.28,3.17a33,33,0,0,1,1.53,4.79c.29,1.37.55,2.75.78,4.16a36.34,36.34,0,0,0,2.26,8.65q-2.79,4.92-3.14,5.61a39,39,0,0,0-3,9,31.17,31.17,0,0,1-2.46,7c-.52.66-1.08,1.3-1.67,1.94a22.12,22.12,0,0,0-1.67,2l3.19-.19a30.28,30.28,0,0,1-3.44,9.58,32.63,32.63,0,0,0-3,6.69,53.9,53.9,0,0,1-4.57,9.79,28.08,28.08,0,0,0-2.46,4.52,30.9,30.9,0,0,0,4.57-4.28q2.07-2.36,4-4.82a51.77,51.77,0,0,1,5.46-6.29,25.8,25.8,0,0,0,3.35-3.84,90.32,90.32,0,0,1,7.72-11.31l1.86-2.45.79-1.92a48,48,0,0,1,4-8.36,21.42,21.42,0,0,1,2.9-3.59l-2.31-.79a40.47,40.47,0,0,1,2.51-5.95,12.49,12.49,0,0,1,2.12-2.31,16.44,16.44,0,0,0,1.81-1.92,5.86,5.86,0,0,0,.4.67c.16.24.29.45.39.61a9.68,9.68,0,0,1,.42-3,7.73,7.73,0,0,0,.42-2.34,6.3,6.3,0,0,0-.05-.79,4.54,4.54,0,0,1-.05-.59,4.07,4.07,0,0,1,.69-2.21l.54-.88q3.09-8.07,6.34-14.83t7.77-14.23a75.9,75.9,0,0,1,4.48-8.51l-1.33-.05c.79-1.7,1.54-3.41,2.26-5.11.85-2.07,1.76-4.09,2.73-6.08a32.1,32.1,0,0,1,3.52-5.63A15.55,15.55,0,0,1,384,249.4a15.07,15.07,0,0,0,2.21-1.67c-1.93,1-3.85,2-5.75,2.9A10.25,10.25,0,0,0,377.67,252.55ZM87.06,307.72a38.19,38.19,0,0,1-.59,3.88,40.24,40.24,0,0,0-.69,4.82,8,8,0,0,1-1.72,3.84l-.2.29-3.24-5a12.51,12.51,0,0,1,.71,3.19c0,.89.07,1.59.07,2.12a39,39,0,0,1-.59,5.85,27.22,27.22,0,0,0-.59,4.82l0,1.28,0,.93A5.77,5.77,0,0,1,79,338a53.65,53.65,0,0,1-12.24,4.28,69.08,69.08,0,0,0,1.38-7.23,24.05,24.05,0,0,1,1.57-5.75,27,27,0,0,0,1.62-6.05,42.72,42.72,0,0,1,4-15.2,17.73,17.73,0,0,0,2.42-4.22l6.67,0c1.18,0,2.36.1,3.54.2a72.71,72.71,0,0,1-7.57,4.18A41.36,41.36,0,0,0,87.06,307.72Zm6.29-33.09a13.18,13.18,0,0,0,1.53.29,77.73,77.73,0,0,1-2.44,8.36,76.09,76.09,0,0,0-2.38,8.16c.33-.36.72-.76,1.18-1.2s.83-.83,1.13-1.16a17.15,17.15,0,0,1-1.43,3.4c-.42.85-.8,1.72-1.13,2.6-.26,1.18-.54,3.17-.83,5.95q-3.26.6-7.23,1.72c-1.34.38-2.67.73-4,1.05A23.43,23.43,0,0,0,79,299.85a7.52,7.52,0,0,1,.35-1.28,5.9,5.9,0,0,0,.39-1.82,1.85,1.85,0,0,0-.54-1.27,13.59,13.59,0,0,1,1.72-6.05,16.1,16.1,0,0,0,1.38-3.89q.93-3.54,5.65-11.85a17.89,17.89,0,0,0-3.93,3.1A49.54,49.54,0,0,1,86.67,272a27.17,27.17,0,0,1,.68-3.69c.83.13,1.65.27,2.44.45a8.76,8.76,0,0,1,3.12,1.35A5.73,5.73,0,0,1,95,272.91q-1.33.09-5.31.09c-.79,0-2,0-3.55,0A52.83,52.83,0,0,0,93.35,274.63Zm36.54-.05,1.41-.29c-.18.64-.36,1.27-.53,1.91-2.47-.19-4.36-.38-5.65-.59A48.19,48.19,0,0,1,129.89,274.58Zm-23,15.44a20.53,20.53,0,0,0,1.62-7,9.54,9.54,0,0,1,.19-2.17A3.17,3.17,0,0,1,110,279.1l0,1.38a43.11,43.11,0,0,1-1.52,9.93,5.52,5.52,0,0,0,1.33-3,6.66,6.66,0,0,1,.93-2.55,13.87,13.87,0,0,0,1.52-3.79l11.22-2.21q2.7-.5,5.45-.84a7.44,7.44,0,0,0,1.4-.43c-.59,2.29-1.13,4.59-1.59,6.92-.1,1-.18,2-.25,3a49.79,49.79,0,0,1-1.08,7.77c0,.15-.07.32-.11.48l-9.33-.19c.13-.91.9-1.75,2.31-2.5a6,6,0,0,0,.83-.45c-1.7.2-3.43.36-5.18.5s-3.52.3-5.29.51a27.43,27.43,0,0,0-5.21,1.16A30.75,30.75,0,0,1,106.93,290Zm-5.27,38.16,0-1.14a16.72,16.72,0,0,1,.89-4.72,15.27,15.27,0,0,0,.88-4.08c-.46,1.28-1,2.58-1.54,3.89a21.08,21.08,0,0,1-2.09,3.68,11.53,11.53,0,0,1-3,2.91,72.39,72.39,0,0,0,2-8.51,48.78,48.78,0,0,1,3.1-11.65,27.18,27.18,0,0,0,5.26-.94c1.35-.33,2.71-.6,4.08-.83a10,10,0,0,0,4-1.38l.68-.35-4-1.08c.85-.16,1.71-.36,2.56-.59a41.54,41.54,0,0,1,5.33-.88,12.94,12.94,0,0,0,4.85-1.58c.7-.3,1.42-.57,2.15-.82a20,20,0,0,1-1.12,5.89,70.14,70.14,0,0,0-2.46,9.54,58,58,0,0,1-3.28,11.63l-.85.07-2,.3a20.84,20.84,0,0,1-3.59.44,9.21,9.21,0,0,1-1.62-.15,19.06,19.06,0,0,0-4-.44A26.93,26.93,0,0,0,101.66,328.18Zm62.8-1.53,1.38-.19-.51.77-1.91-.48Zm2.37,1c.62-.42,1.26-.82,1.9-1.2a25.09,25.09,0,0,1,4.18,2.68C170.88,328.6,168.86,328.1,166.83,327.6Zm37.55-26.91a21.56,21.56,0,0,1-.49,3.05q-2,5.85-9.24,10.62a31.53,31.53,0,0,1-6,1.57c1.34.1,2.67.21,4,.35-1.44,1.18-2.92,2.32-4.42,3.44a69.34,69.34,0,0,1-7.67-2.51,9.88,9.88,0,0,1-4.14-4.72c-.45-1-.88-2-1.27-3l-1-2.31c0-2.39,0-4.54.1-6.44a41.49,41.49,0,0,1,1.62-11.21,17.43,17.43,0,0,1,5.9-8,2.71,2.71,0,0,0-.88-.15,3.29,3.29,0,0,0-2.16.94l-1.28,1.13a10.39,10.39,0,0,1-1.87,1.57,44.56,44.56,0,0,1,4.23-7.47l1-1.58a43.15,43.15,0,0,0,4.82-2.95l.25-.09a4.17,4.17,0,0,1,2.21-.74,18.82,18.82,0,0,1,2.36.15c.52.06,1.22.13,2.09.19a16.59,16.59,0,0,1,2.19.3,4.7,4.7,0,0,1,3.34,3.19,8.08,8.08,0,0,0,.74,1.43c0-1.54-.13-3.07-.3-4.57l1,1a5.85,5.85,0,0,1,2.31,3.44q1,6.1,2.36,12.05l-.74,3.19a28.33,28.33,0,0,1-2.26,7.63c-.3.46-.58.93-.84,1.42a54.29,54.29,0,0,1-3.59,5.41l.79-.34a9.79,9.79,0,0,0,4.08-2.51,34.11,34.11,0,0,0,2-4.82c.36-1.08.77-2.15,1.23-3.2l.49,0A16.51,16.51,0,0,0,204.38,300.69Zm12.37-22.08c-.42,1.26-.71,2.16-.86,2.7-.21-.67-.42-1.47-.65-2.4C215.75,278.81,216.24,278.7,216.75,278.61Zm.09,3.28c.13-1.07.22-2.19.3-3.36l2-.31C218.23,279.5,217.48,280.72,216.84,281.89ZM289,260.66l-.19-.16.39.11v.2a.66.66,0,0,1-.46.64,6.33,6.33,0,0,1,.31-.74A0,0,0,0,0,289,260.66Zm-4.45-1.16a4.68,4.68,0,0,1-.76.52c0-.22-.07-.43-.1-.65Zm-22.69,6.82a14.24,14.24,0,0,1,5,1c1.12.43,2.23.89,3.35,1.38l1,.44a6.43,6.43,0,0,0,.83,1.4,33.42,33.42,0,0,0-.43,3.57,35.58,35.58,0,0,0-6.89-4.63,43.55,43.55,0,0,1-4.92-3A11.93,11.93,0,0,1,261.87,266.32ZM272.34,271a12.26,12.26,0,0,0,1,1c0,.23-.05.45-.09.64a4.47,4.47,0,0,1-.73,1.79Zm-1.18-4.81a6.72,6.72,0,0,0,1.18-.1,13,13,0,0,1,2-.18c-.05.19-.09.37-.14.57a20.61,20.61,0,0,0-.61,3.3c-.12-.13-.24-.27-.37-.39a23.53,23.53,0,0,0-4-3.39A16.07,16.07,0,0,0,271.16,266.17Zm-12.54,60.92a44.22,44.22,0,0,0,5-7.22c.39-.63.76-1.23,1.1-1.8a8.12,8.12,0,0,0,.81-2.93,8.46,8.46,0,0,1,.25-1.52,11.81,11.81,0,0,1-5.26,6.69q1.23-3.58,2.56-7.13c.82-2.07,1.59-4.13,2.31-6.2a15.78,15.78,0,0,0,.93-5.36,34.89,34.89,0,0,0-.49-6.05c-.3,2.36-.51,4-.64,4.82a20.59,20.59,0,0,1-2.75,7.18c-.76,1.25-1.58,2.49-2.46,3.74q-2.85,4.23-4.62,7.47c-.53.79-1,1.59-1.48,2.41a11.2,11.2,0,0,1-3.79,2.31c-.45.17-.9.35-1.32.54a21.21,21.21,0,0,0,1.87-4.32,29.36,29.36,0,0,1-2.81,2.55,5.15,5.15,0,0,1-2.9,1,71.25,71.25,0,0,1-9.14-.89,14.6,14.6,0,0,1-3.79-2.7,15.07,15.07,0,0,0-3-2.36c-.36-1.08-.76-2.17-1.18-3.25a26.83,26.83,0,0,1-1.92-6.59,7.15,7.15,0,0,1,1.82,2,6.78,6.78,0,0,0,2.31,2.26,2.82,2.82,0,0,0,1.13.25,3.56,3.56,0,0,0,.79-.1,12.68,12.68,0,0,1-4-8.36v-.94a33.4,33.4,0,0,1,1.67-9.93l2.36-6.88,1.77-1.82a26.35,26.35,0,0,1,6.15-5.41,10.51,10.51,0,0,1,3.83-1.28c1.12-.06,2.25-.16,3.39-.29a28.21,28.21,0,0,1,4.43-.4,14.58,14.58,0,0,1,2.24.18c.77.11,1.55.2,2.33.27a44.9,44.9,0,0,1,4.48.71,11.39,11.39,0,0,1,4.13,1.79l-.84-1a6.62,6.62,0,0,0-2.85-2.8,13.59,13.59,0,0,0-5.16-1.28,18.63,18.63,0,0,1-2.56-.39,19.53,19.53,0,0,1-4.82-1.09,32.1,32.1,0,0,0-3.93-.93,30.8,30.8,0,0,1,11.16-2.16h.88c1.18.59,2.38,1.16,3.59,1.72a106.83,106.83,0,0,1,11.2,5.6,29.85,29.85,0,0,1-.77,5.51,37.08,37.08,0,0,1-2.12,6.25l.05.88a13.12,13.12,0,0,1-.88,4,11.35,11.35,0,0,0-.94,4l.05,2.16q0,1.42-.49,6.15l-.44,3.63.05,1.92a55,55,0,0,1-1.76,12.61c-.22.25-.42.51-.65.77a4.44,4.44,0,0,1-.77.64l-1-.89v1.43a11.65,11.65,0,0,1-2.95.78Zm27.91-55.15c.28-1,.52-2,.72-2.86a23.44,23.44,0,0,0,4.81.83A39,39,0,0,1,286.53,271.94Z" transform="translate(-38.33 -226.98)"/><path d="M429.69,298.57a6,6,0,0,0,.4-1.82,1.82,1.82,0,0,0-.55-1.27,13.59,13.59,0,0,1,1.73-6.05,16.56,16.56,0,0,0,1.37-3.89q.93-3.54,5.66-11.85a17.69,17.69,0,0,0-3.94,3.1A51.75,51.75,0,0,1,437,272a43.87,43.87,0,0,1,1.77-7.62c-.23.52-.38.79-.44.79s-.05-.05-.05-.15a9.17,9.17,0,0,1,.19-1.38,17.78,17.78,0,0,0,.4-3.78c0-.56,0-1.1-.05-1.63h-.94l-.83-.05.19-3.78c-1,1.31-2.13,2.6-3.24,3.88a30.82,30.82,0,0,0,1-5.7c1.28-4.26,2-7,2.26-8.26a14.3,14.3,0,0,1,1.23-3.69,13.61,13.61,0,0,0,1-5.36l.05-1.67a37.78,37.78,0,0,1-2.29,5.31q-1.35,2.55-2.85,5.09t-2.93,5.19a14.39,14.39,0,0,1-1.47,0,23.86,23.86,0,0,1-2.27,6.05,19,19,0,0,0-2.36,6.84A52.7,52.7,0,0,1,422,274.82l-.49,1.38-1.18.79a0,0,0,0,1-.05.05,11.1,11.1,0,0,1-.83,3.37,14,14,0,0,0-1,3.71,13,13,0,0,1-1.33,4.23c-.09-1-.14-1.82-.14-2.51l-.54.1-.05.19a22.71,22.71,0,0,1-.47,2.78,7.08,7.08,0,0,1-1.16,2.53l1,.2a35.11,35.11,0,0,1-3.1,9.2,7.15,7.15,0,0,0-1.13,3.29,6,6,0,0,1-.42,2c-.25.61-.52,1.22-.81,1.85a9.47,9.47,0,0,0-1.23,3.24,40.44,40.44,0,0,1-.54-5.7,35.06,35.06,0,0,0-.94-7.23,41.48,41.48,0,0,1-1.86-11.95c0-.95,0-1.88.09-2.8a15.33,15.33,0,0,0,.69-4.67,39.19,39.19,0,0,0-.29-4.68,49,49,0,0,1-.35-5.31,3.86,3.86,0,0,0-.39,1.23c-.26,1-.47,1.57-.62,1.65a.77.77,0,0,1-.31.12,1,1,0,0,1-.5-.19,42.38,42.38,0,0,1-.78-8.9c-.3,2.68-.51,4-.64,4s-.07-.2-.1-.59A26.71,26.71,0,0,0,402,262a6.48,6.48,0,0,1-.15-1.38,19.34,19.34,0,0,1,.1-2.06v-.25l-2-.93a9.71,9.71,0,0,1-.49-2.51q0-.78-.15-1.53c-.29.73-.55,1.46-.78,2.22,0,.06-.07.1-.1.1q-.35,0-1-5.46t-1.06-5.46a.17.17,0,0,0-.15.1,8.61,8.61,0,0,1-1.52-5.07v-1.32l.05-3.1c0-.56,0-1.1-.05-1.63a19.72,19.72,0,0,0-2.16,7.38,31.43,31.43,0,0,0-.3,5l.05,3.29.05,1.53c0,3-.46,5.13-1.38,6.24a21.78,21.78,0,0,1,.49,4.18,1.67,1.67,0,0,1-.61,1.38,1.38,1.38,0,0,0-.61,1.08l0,.39a17,17,0,0,1,.5,3.4,7.94,7.94,0,0,1-.1,1.18q-.84-2.37-2.07-5.32c.3,1.64.63,3.28,1,4.92s.72,3.29,1,4.94a29.46,29.46,0,0,1,.54,4c.05,1,.08,1.74.08,2.13a19.25,19.25,0,0,1-.4,3.89,5.64,5.64,0,0,1,.64,2.06l-.05,5.41a7.74,7.74,0,0,0,.5,2.41,42,42,0,0,1,1.72,7.13,37.8,37.8,0,0,0,1.67,7.13A60,60,0,0,1,397,320.41a30.34,30.34,0,0,1-3,13.76,17.4,17.4,0,0,0,2.46-2.55,22,22,0,0,1,2.36-2.56,43.41,43.41,0,0,0,1.92,8.31c.52,1.71,1,3.43,1.42,5.16a30.17,30.17,0,0,1-6.14,8.31,46,46,0,0,0,6-3,86.56,86.56,0,0,0-1.33,11.71,10.35,10.35,0,0,1-.74,3.34c-.43,1.05-.9,2.1-1.42,3.15a18.8,18.8,0,0,0-2.07,5.46,24.59,24.59,0,0,0,5.21-5.81c.66-1,1.36-1.93,2.12-2.85.88-1.7,1.82-3.39,2.8-5.06a65,65,0,0,0,5.51-11.36,13.21,13.21,0,0,1,.44,3.34,29.56,29.56,0,0,1-.64,5.66l-.1.59a60,60,0,0,0,6.59-20.95,24.05,24.05,0,0,1,1.57-5.75,27.69,27.69,0,0,0,1.63-6.05,42.51,42.51,0,0,1,4-15.2,19.82,19.82,0,0,0,3.69-8.21A7.43,7.43,0,0,1,429.69,298.57Z" transform="translate(-38.33 -226.98)"/><path d="M549.72,272.27a35.45,35.45,0,0,0,5.85-1.82,34.5,34.5,0,0,1,6.1-1.87c-1,0-2.07-.09-3.07-.17s-1.83-.14-2.49-.17-1.18-.05-1.57-.05a15.57,15.57,0,0,0-1.67.09,13.48,13.48,0,0,1-1.67.1,41,41,0,0,1-6.69-.88,36.53,36.53,0,0,0-7.52-.84c.42-.65.85-1.28,1.27-1.87l-8.8.25a38.29,38.29,0,0,0-3.88.29,1.58,1.58,0,0,1-.3-.24c-.1-.1-.19-.21-.29-.32a1.22,1.22,0,0,0-.3-.27q-1.12.63-2.31,1.23c.1-.79.22-1.6.35-2.44s.26-1.69.39-2.58l-.64,1.43a21.24,21.24,0,0,1-2.07,3.88,27.94,27.94,0,0,1,.55-5.8q.63-2.85,1.47-5.66.89-3.09,1.52-6.24c-1,1.77-2.18,3.49-3.39,5.16a41.92,41.92,0,0,0-4.37,7c-.1-.26-.23-.58-.4-.95s-.29-.72-.39-1c-.39.78-.77,1.59-1.13,2.41q-1.57,4.13-3.84,5.75a21,21,0,0,1-2.85.2c-1.34,0-2.68-.05-4-.15s-2.87-.15-4.64-.15a13.07,13.07,0,0,0-3.71.64,10.87,10.87,0,0,0-1.5-.59q1.08-.84,2-1.47a38.37,38.37,0,0,0-7.4-1.38,43.27,43.27,0,0,1-7-1.18c.2-1.54.41-3.05.64-4.52a20.34,20.34,0,0,0-1.57,2.9c-.72-2.72-1.36-5.48-1.92-8.26-.06-1-.1-1.89-.1-2.81l.05-1.87.05-4.37a16,16,0,0,0-.88,2.43c-.23.84-.48,1.67-.74,2.48-.23,1-.49,2-.76,2.91a21.13,21.13,0,0,1-1.06,2.8,15.69,15.69,0,0,1-2-5.43,32.47,32.47,0,0,1-.39-4.7,74.64,74.64,0,0,1,.84-10.62,53.85,53.85,0,0,0,.68-6.59q-1.12,5-3.88,14.26-1.72,8.26-2.85,16.72l-.05.69a8.48,8.48,0,0,0,.34,2.16,8.26,8.26,0,0,1,.3,1,49.83,49.83,0,0,0-11.17,2.37,11.75,11.75,0,0,1,1-3.5,0,0,0,0,0-.05,0q-.93-.74-1.77-1.47l.25-1.08.54-2.86a16.84,16.84,0,0,0-1.48,1.92,8.27,8.27,0,0,1-2.75,2.85,10.86,10.86,0,0,1-.2-2,17.48,17.48,0,0,1,1.33-5.95c.33-.95.62-1.92.88-2.9a20.81,20.81,0,0,0-4.27,6.44,14,14,0,0,1-4.09,5l-2.55,2-.15.1v.39a15.63,15.63,0,0,1-.59,3.34,21.21,21.21,0,0,0-.61,3.26l-1.25.61-.06-1.06c-.09.4-.16.8-.23,1.2-.73.37-1.44.73-2.13,1.11l2-.63a32.69,32.69,0,0,0-.44,5.13,29.47,29.47,0,0,1-.81,6.66,37.08,37.08,0,0,1-2.12,6.25l.05.88a13.12,13.12,0,0,1-.88,4,11.35,11.35,0,0,0-.94,4l0,2.16q0,1.42-.49,6.15l-.44,3.63,0,1.92a59.28,59.28,0,0,1-2.31,14.8l-1.87-1.67V326c0,.43,0,.86,0,1.28a2.34,2.34,0,0,0,.37,1.18,11.85,11.85,0,0,1-.86,3.69,14.84,14.84,0,0,1-1.87,3.27c-.77,1-1.56,2-2.38,2.92a16,16,0,0,0,1.74-.9l1.7-1a28.54,28.54,0,0,1,2.51-1.53c0,.31-.08.62-.11.92l-.63.07.6.12a61.11,61.11,0,0,0-.4,7c0,1.14,0,2.29.1,3.44V347a16.83,16.83,0,0,1-1.58,6.2,20.75,20.75,0,0,0-1.52,5.55,19.83,19.83,0,0,0,3.64-4.42,26,26,0,0,1,1.42-2.51,18,18,0,0,0,2.26-4.38,94.49,94.49,0,0,0,4.58-10.33h.14c.74,0,1.44,0,2.11,0,0,0,0,.09,0,.13a24.62,24.62,0,0,1-.59,5.31A29.87,29.87,0,0,0,444,337c.66,0,1.3-.08,1.9-.14,1.51-.13,2.8-.2,3.88-.2a22.32,22.32,0,0,1,2.61.15,2.34,2.34,0,0,1,0,.64,63.85,63.85,0,0,1-5.51,3.25q-1.51.74-3,1.62,6.65-.45,10.33-.84c-.33,1.94-.69,3.85-1.08,5.76q-2.91,13.28-3.2,14.89c.39-1,.8-2,1.23-3a88.68,88.68,0,0,0,5.41-15.59c0,1.37.1,2.73.2,4.08,0,.42,0,.87,0,1.33a91.83,91.83,0,0,0,3.74-8.66,5.66,5.66,0,0,0,.84-.07l.78-.12a21.15,21.15,0,0,0,1.53-1.6,19.26,19.26,0,0,1,1.6-1.67,5,5,0,0,1,2-1.18c.77-.25,1.58-.54,2.44-.87s2-.68,2.95-1a12.73,12.73,0,0,1,2.36-.52c.59,0,1-.07,1.18-.07a10.19,10.19,0,0,1,2.41.3l.74-.79c1.5-1.61,3-3.2,4.54-4.77a54.84,54.84,0,0,1,4.8-4.38,12,12,0,0,0,2.85-5.41,35.75,35.75,0,0,0,.64-6.24l1.38.84a11.77,11.77,0,0,0-1.92-4.58,13,13,0,0,1-1.67-3.34,32.4,32.4,0,0,1-6.4-2.71,60.4,60.4,0,0,1,5.27-4.22,32.12,32.12,0,0,0,8.26-7.77,11.67,11.67,0,0,0-6,3.19,24.91,24.91,0,0,0,1.52-2.11,20.9,20.9,0,0,1,4.72-5.26,4.77,4.77,0,0,0,1.77-2,19.82,19.82,0,0,0,1.23-5.36c.1-1.57.15-2.83.15-3.79,0-.37,0-.74,0-1.11,1.53.39,3.09.71,4.69,1a12.65,12.65,0,0,0,1.52.29,75,75,0,0,1-2.43,8.36,73.79,73.79,0,0,0-2.38,8.16c.32-.36.72-.76,1.18-1.2s.83-.83,1.13-1.16a17.77,17.77,0,0,1-1.43,3.4,25.86,25.86,0,0,0-1.13,2.6c-.26,1.18-.54,3.17-.84,5.95q-3.24.6-7.22,1.72c-1.38.4-2.76.76-4.13,1.09l6.78,0c1.18,0,2.36.1,3.54.2a73.75,73.75,0,0,1-7.57,4.18,41.36,41.36,0,0,0,6.69-.54,38.19,38.19,0,0,1-.59,3.88,40.24,40.24,0,0,0-.69,4.82,8,8,0,0,1-1.72,3.84l-.2.29-3.24-5a12.51,12.51,0,0,1,.71,3.19c.05.89.07,1.59.07,2.12a39,39,0,0,1-.59,5.85,27.22,27.22,0,0,0-.59,4.82l.05,1.28.05.93a5.77,5.77,0,0,1-1.33,4.23A54.87,54.87,0,0,1,478,342.44a79.87,79.87,0,0,0-10.67,3.34l.24.05a9.52,9.52,0,0,0,3.64-.49,27,27,0,0,1,7.87-1.09,36.22,36.22,0,0,0,4.18-.24,34.13,34.13,0,0,1,7.52-1.08q-.39,2.4-.93,4.77a45.65,45.65,0,0,0-1.18,8.6l.24-.39q1.33-2.22,2.64-4.45a41.94,41.94,0,0,0,2.33-4.7c.23,2.76.56,5.49,1,8.21a8.76,8.76,0,0,1,.4-2.75,25.83,25.83,0,0,1,1-2.46,26.46,26.46,0,0,0,1-2.55,5.77,5.77,0,0,0,3.68-1.58l1.09-.29a9.21,9.21,0,0,1,2.85-2.81l1.23-1a4.09,4.09,0,0,1,2.21-1.13,15.94,15.94,0,0,1,2.51-.2,17.65,17.65,0,0,0,3.14-.34c1.9-.53,3.82-1,5.76-1.38a50.64,50.64,0,0,0,12.19-3.78q-5.7.43-11.41.63A16,16,0,0,1,528,333a75,75,0,0,0,8.45-2.86,73.58,73.58,0,0,1,10.33-3.24c-3.21.23-6.28.34-9.19.34l-4.58-.05a18.42,18.42,0,0,0-2.06.1l-2,.3a21,21,0,0,1-3.59.44,9.21,9.21,0,0,1-1.62-.15,19.13,19.13,0,0,0-4-.44,26.93,26.93,0,0,0-6.2.79l0-1.14a16.72,16.72,0,0,1,.89-4.72,15.68,15.68,0,0,0,.88-4.08c-.46,1.28-1,2.58-1.55,3.89a19.87,19.87,0,0,1-2.09,3.68,11.53,11.53,0,0,1-3,2.91,72.08,72.08,0,0,0,2-8.51,48.78,48.78,0,0,1,3.1-11.65,27.31,27.31,0,0,0,5.26-.94c1.34-.33,2.7-.6,4.08-.83a9.93,9.93,0,0,0,4-1.38l.69-.35-4-1.08c.85-.16,1.7-.36,2.56-.59a41.54,41.54,0,0,1,5.33-.88,12.84,12.84,0,0,0,4.84-1.58c.92-.39,1.86-.74,2.81-1.05a9.61,9.61,0,0,1,3-.47,17.38,17.38,0,0,0,6.09-1.82,25.7,25.7,0,0,1,3.79-1.38q-5.55-.34-22.28-.64c.14-.91.91-1.75,2.32-2.5a6,6,0,0,0,.83-.45c-1.7.2-3.43.36-5.19.5s-3.51.3-5.28.51a27.43,27.43,0,0,0-5.21,1.16,31.76,31.76,0,0,1,1.42-4.77,20.53,20.53,0,0,0,1.62-7,9.45,9.45,0,0,1,.2-2.17,3.12,3.12,0,0,1,1.28-1.72l.05,1.38a42.66,42.66,0,0,1-1.53,9.93,5.38,5.38,0,0,0,1.33-3,6.65,6.65,0,0,1,.94-2.55,14.53,14.53,0,0,0,1.52-3.79l11.21-2.21q2.7-.5,5.46-.84a10.31,10.31,0,0,0,3-1.18l.94-.49c-3.55-.23-6.13-.48-7.77-.74a48.19,48.19,0,0,1,4.77-1A32.78,32.78,0,0,0,549.72,272.27Zm-99.85,26.6c.32,0,.64-.05,1-.05a35.15,35.15,0,0,1,7.08.88,69.48,69.48,0,0,1-8.71,4.38A40.39,40.39,0,0,1,449.87,298.87Zm-7.61-28.39c-.06.89-.14,1.62-.23,2.16a4.47,4.47,0,0,1-.73,1.79l-.21-3.6ZM440.84,335c.28-.85.53-1.68.75-2.48a15.51,15.51,0,0,1,.58,2.25C441.74,334.84,441.29,334.91,440.84,335Zm17.47-26.57.79.24a12.86,12.86,0,0,0-.1,1.68,22.75,22.75,0,0,0,.24,2.7,22.5,22.5,0,0,1,.25,3.05,54.15,54.15,0,0,1-1.77,9.14l-1,4.73a47,47,0,0,0-8.26,2.4,15.66,15.66,0,0,1-3.64,1.71c.34-1.39.66-2.79.93-4.21l.64-2.85c.23-3.55.43-6.05.59-7.53a27.6,27.6,0,0,1,.84-4.33,38.73,38.73,0,0,0,1.32-9.23l1.68-.3,2.55-.05c1.41,0,2.82.05,4.23.14l2.61.05a26.76,26.76,0,0,1-3.69,2.07A16.1,16.1,0,0,1,458.31,308.41Zm3.74-15.29-3.35.73a31.07,31.07,0,0,0-6.78,1.87,13.56,13.56,0,0,1-1.4.65,17,17,0,0,1,1.64-4.24,14.93,14.93,0,0,0,1.58-3.49c.29-1.28.56-2.54.78-3.78a23.52,23.52,0,0,1,1.38-5.51l-2.36,2.85-.05-1.33a27.06,27.06,0,0,1,1.47-7.73,4.13,4.13,0,0,1,1.92.7l.84-.15a18.09,18.09,0,0,1,4.52-.69,8.67,8.67,0,0,1,3.25.64Q464.11,282.7,462.05,293.12Zm15.88,28.07a7.74,7.74,0,0,1-3,2.31l-.47-.44c-.18-.16-.36-.33-.54-.52s-.33-.31-.46-.41a5.89,5.89,0,0,0-.59,1.67,11.47,11.47,0,0,1-.55,1.55c-.19.44-.36.68-.51.71l-.27.05c-.23,0-.49-.26-.79-.79l-1,1.28q.73-4.43,1.57-8.8l1.53-8.26a36,36,0,0,1,3.78.74,4.32,4.32,0,0,1,3.54,4.52A10.13,10.13,0,0,1,477.93,321.19Zm9.1-38.7a15.06,15.06,0,0,0-2,2.91,9.94,9.94,0,0,1-4.28,3.83c-.85.39-1.72.77-2.6,1.13-.69.3-1.36.61-2,.94q1.23-4,2.16-8l.52.3a1.9,1.9,0,0,1,.42.29c1-2.78,1.87-5.57,2.65-8.36l1.33-.19a22.32,22.32,0,0,1,2.61-.15,3.66,3.66,0,0,1,3.88,2.7A11.41,11.41,0,0,1,487,282.49Zm14.5-9.49-1,0c0-.6-.06-1.2-.11-1.79-1.11-1-2.34-2-3.69-3.05-.13-.1-.28-.19-.42-.28.57.09,1.15.18,1.75.25a34.14,34.14,0,0,1,3.62.62,8.76,8.76,0,0,1,3.12,1.35,5.71,5.71,0,0,1,2.06,2.83Q505.52,273,501.53,273Z" transform="translate(-38.33 -226.98)"/></svg>